M48
; DRILL file {KiCad 9.0.0} date 2025-05-04T21:53:54+0200
; FORMAT={-:-/ absolute / inch / decimal}
; #@! TF.CreationDate,2025-05-04T21:53:54+02:00
; #@! TF.GenerationSoftware,Kicad,Pcbnew,9.0.0
; #@! TF.FileFunction,Plated,1,2,PTH
FMAT,2
INCH
; #@! TA.AperFunction,Plated,PTH,ViaDrill
T1C0.0118
; #@! TA.AperFunction,Plated,PTH,ViaDrill
T2C0.0197
; #@! TA.AperFunction,Plated,PTH,ComponentDrill
T3C0.0394
; #@! TA.AperFunction,Plated,PTH,ComponentDrill
T4C0.0402
%
G90
G05
T1
X2.6846Y-3.5654
X2.7059Y-4.4512
X2.7091Y-4.8882
X2.7106Y-4.0091
X2.8831Y-3.4831
X2.9409Y-4.952
X3.0201Y-2.8972
X3.0469Y-5.1028
X3.1843Y-2.6496
X3.2264Y-2.65
X3.2693Y-2.6248
X3.2976Y-4.5512
X3.298Y-4.3346
X3.3976Y-2.9283
X3.4051Y-5.5016
X3.7957Y-2.998
X3.8354Y-4.2142
X4.1665Y-4.3843
X4.1953Y-5.1433
X4.2437Y-4.3839
X4.3398Y-3.6713
X4.4205Y-3.6713
X4.4283Y-4.1591
X4.448Y-4.3433
X4.4768Y-2.8913
X4.487Y-3.8244
X4.5031Y-4.0319
X4.5031Y-4.137
X4.5531Y-5.2421
X4.5764Y-3.4185
X4.7004Y-3.2894
X4.7476Y-4.0264
X4.7476Y-4.2106
X4.8138Y-2.911
X5.0287Y-4.8713
X5.0291Y-4.6917
X5.1276Y-3.2878
X5.2004Y-5.1882
X5.6028Y-4.4831
X5.6051Y-3.5268
T2
X2.4252Y-3.4661
X2.4256Y-4.0146
X2.4327Y-4.6134
X2.4331Y-4.085
X2.45Y-5.2276
X2.4504Y-4.7626
X2.7008Y-5.4094
X3.2091Y-5.3079
X3.7059Y-2.5787
X3.8902Y-5.5098
X4.226Y-2.7114
X4.2394Y-5.5091
X4.2976Y-2.7055
X4.6406Y-5.5059
X4.8354Y-2.7051
X5.811Y-3.4657
X5.8126Y-4.4445
X5.8134Y-4.9067
X5.9209Y-3.837
T3
X3.0803Y-3.137
X3.0803Y-3.237
X3.0803Y-3.337
X3.0803Y-3.437
X3.0803Y-3.537
X3.0803Y-3.637
X3.0803Y-3.737
X3.0803Y-3.837
X3.0803Y-3.937
X3.0803Y-4.037
X3.0803Y-4.137
X3.0803Y-4.237
X3.0803Y-4.337
X3.0803Y-4.437
X3.0803Y-4.537
X3.0803Y-4.637
X3.0803Y-4.737
X3.0803Y-4.837
X3.0803Y-4.937
X3.1803Y-3.137
X3.1803Y-3.237
X3.1803Y-3.337
X3.1803Y-3.437
X3.1803Y-3.537
X3.1803Y-3.637
X3.1803Y-3.737
X3.1803Y-3.837
X3.1803Y-3.937
X3.1803Y-4.037
X3.1803Y-4.137
X3.1803Y-4.237
X3.1803Y-4.337
X3.1803Y-4.437
X3.1803Y-4.537
X3.1803Y-4.637
X3.1803Y-4.737
X3.1803Y-4.837
X3.1803Y-4.937
X3.7071Y-3.5744
X3.7071Y-4.4744
X3.8071Y-3.5744
X3.8071Y-4.4744
X3.9071Y-3.5744
X3.9071Y-4.4744
X4.0071Y-3.5744
X4.0071Y-4.4744
X4.1071Y-3.5744
X4.1071Y-4.4744
X4.2071Y-3.5744
X4.2071Y-4.4744
X4.3071Y-3.5744
X4.3071Y-4.4744
X4.4071Y-3.5744
X4.4071Y-4.4744
X4.5071Y-3.5744
X4.5071Y-4.4744
X4.6071Y-3.5744
X4.6071Y-4.4744
X4.7071Y-3.5744
X4.7071Y-4.4744
X4.8071Y-3.5744
X4.8071Y-4.4744
X4.9071Y-3.5744
X4.9071Y-4.4744
X5.0071Y-3.5744
X5.0071Y-4.4744
X5.1071Y-3.5744
X5.1071Y-4.4744
X5.3803Y-3.137
X5.3803Y-3.237
X5.3803Y-3.337
X5.3803Y-3.437
X5.3803Y-3.537
X5.3803Y-3.637
X5.3803Y-3.737
X5.3803Y-3.837
X5.3803Y-3.937
X5.3803Y-4.037
X5.3803Y-4.137
X5.3803Y-4.237
X5.3803Y-4.337
X5.3803Y-4.437
X5.3803Y-4.537
X5.3803Y-4.637
X5.3803Y-4.737
X5.3803Y-4.837
X5.3803Y-4.937
X5.4803Y-3.137
X5.4803Y-3.237
X5.4803Y-3.337
X5.4803Y-3.437
X5.4803Y-3.537
X5.4803Y-3.637
X5.4803Y-3.737
X5.4803Y-3.837
X5.4803Y-3.937
X5.4803Y-4.037
X5.4803Y-4.137
X5.4803Y-4.237
X5.4803Y-4.337
X5.4803Y-4.437
X5.4803Y-4.537
X5.4803Y-4.637
X5.4803Y-4.737
X5.4803Y-4.837
X5.4803Y-4.937
T4
X2.7169Y-2.948
X2.7169Y-3.0661
M30
